<svg width="21" height="20" viewBox="0 0 21 20" fill="none" xmlns="http://www.w3.org/2000/svg">
<path fill-rule="evenodd" clip-rule="evenodd" d="M1.24902 0.291534C1.06125 0.225495 0.854932 0.236753 0.67546 0.322832C0.495988 0.408912 0.358061 0.56276 0.292022 0.750534C0.225983 0.938307 0.237242 1.14462 0.323321 1.3241C0.4094 1.50357 0.563249 1.64149 0.751022 1.70753L1.01302 1.79853C1.68002 2.03353 2.11902 2.18853 2.44202 2.34753C2.74502 2.49653 2.87902 2.61753 2.96702 2.74553C3.05702 2.87753 3.12702 3.05953 3.16702 3.42253C3.20702 3.80253 3.20802 4.29753 3.20802 5.03753V7.75953C3.20802 9.21253 3.22202 10.2595 3.35902 11.0595C3.50502 11.9135 3.79702 12.5255 4.34402 13.1015C4.93802 13.7285 5.69002 14.0015 6.58702 14.1275C7.44502 14.2495 8.53502 14.2495 9.88002 14.2495H15.286C16.028 14.2495 16.652 14.2495 17.156 14.1875C17.693 14.1225 18.181 13.9785 18.608 13.6315C19.034 13.2835 19.273 12.8345 19.445 12.3225C19.608 11.8405 19.734 11.2295 19.884 10.5025L20.392 8.03353L20.394 8.02853L20.404 7.97653C20.569 7.15153 20.707 6.45753 20.742 5.89953C20.778 5.31353 20.711 4.73553 20.329 4.23953C20.094 3.93353 19.764 3.76053 19.463 3.65553C19.1379 3.54847 18.8018 3.47803 18.461 3.44553C17.774 3.36953 16.939 3.36953 16.121 3.36953H4.66702L4.65702 3.26153C4.60302 2.76453 4.48702 2.31153 4.20402 1.89953C3.92002 1.48353 3.54202 1.21753 3.10202 1.00053C2.69002 0.798534 2.16602 0.614534 1.54902 0.397534L1.24902 0.291534ZM4.70902 4.86953H16.089C16.945 4.86953 17.699 4.87053 18.294 4.93653C18.59 4.97053 18.811 5.01653 18.966 5.07053C19.029 5.08937 19.0885 5.11842 19.142 5.15653C19.204 5.23853 19.27 5.38653 19.244 5.80753C19.217 6.25153 19.101 6.84353 18.923 7.73353V7.73553L18.423 10.1555C18.263 10.9385 18.153 11.4585 18.024 11.8435C17.901 12.2095 17.785 12.3665 17.66 12.4685C17.535 12.5705 17.357 12.6525 16.975 12.6985C16.571 12.7485 16.04 12.7495 15.241 12.7495H9.93802C8.52102 12.7495 7.53802 12.7475 6.79802 12.6425C6.08202 12.5415 5.70502 12.3575 5.43202 12.0695C5.11202 11.7315 4.93902 11.4015 4.83702 10.8065C4.72702 10.1565 4.70802 9.24853 4.70802 7.75953L4.70902 4.86953ZM6.50002 19.7495C5.90328 19.7495 5.33099 19.5125 4.90903 19.0905C4.48708 18.6686 4.25002 18.0963 4.25002 17.4995C4.25002 16.9028 4.48708 16.3305 4.90903 15.9085C5.33099 15.4866 5.90328 15.2495 6.50002 15.2495C7.09676 15.2495 7.66906 15.4866 8.09101 15.9085C8.51297 16.3305 8.75002 16.9028 8.75002 17.4995C8.75002 18.0963 8.51297 18.6686 8.09101 19.0905C7.66906 19.5125 7.09676 19.7495 6.50002 19.7495ZM5.75002 17.4995C5.75002 17.6984 5.82904 17.8892 5.96969 18.0299C6.11034 18.1705 6.30111 18.2495 6.50002 18.2495C6.69893 18.2495 6.8897 18.1705 7.03035 18.0299C7.171 17.8892 7.25002 17.6984 7.25002 17.4995C7.25002 17.3006 7.171 17.1099 7.03035 16.9692C6.8897 16.8286 6.69893 16.7495 6.50002 16.7495C6.30111 16.7495 6.11034 16.8286 5.96969 16.9692C5.82904 17.1099 5.75002 17.3006 5.75002 17.4995ZM15.5 19.7495C14.9033 19.7495 14.331 19.5125 13.909 19.0905C13.4871 18.6686 13.25 18.0963 13.25 17.4995C13.25 16.9028 13.4871 16.3305 13.909 15.9085C14.331 15.4866 14.9033 15.2495 15.5 15.2495C16.0968 15.2495 16.6691 15.4866 17.091 15.9085C17.513 16.3305 17.75 16.9028 17.75 17.4995C17.75 18.0963 17.513 18.6686 17.091 19.0905C16.6691 19.5125 16.0968 19.7495 15.5 19.7495ZM14.75 17.4995C14.75 17.6984 14.829 17.8892 14.9697 18.0299C15.1103 18.1705 15.3011 18.2495 15.5 18.2495C15.6989 18.2495 15.8897 18.1705 16.0304 18.0299C16.171 17.8892 16.25 17.6984 16.25 17.4995C16.25 17.3006 16.171 17.1099 16.0304 16.9692C15.8897 16.8286 15.6989 16.7495 15.5 16.7495C15.3011 16.7495 15.1103 16.8286 14.9697 16.9692C14.829 17.1099 14.75 17.3006 14.75 17.4995Z" fill="black"/>
</svg>
