<svg width="22" height="18" viewBox="0 0 22 18" fill="none" xmlns="http://www.w3.org/2000/svg">
<path d="M19.25 4.5L18.625 15.132C18.5913 15.705 18.3399 16.2436 17.9222 16.6373C17.5045 17.031 16.952 17.2502 16.378 17.25H5.622C5.04796 17.2502 4.49555 17.031 4.07783 16.6373C3.66011 16.2436 3.40868 15.705 3.375 15.132L2.75 4.5M9 8.25H13M2.375 4.5H19.625C20.246 4.5 20.75 3.996 20.75 3.375V1.875C20.75 1.254 20.246 0.75 19.625 0.75H2.375C1.754 0.75 1.25 1.254 1.25 1.875V3.375C1.25 3.996 1.754 4.5 2.375 4.5Z" stroke="black" stroke-width="1.5" stroke-linecap="round" stroke-linejoin="round"/>
</svg>
